<svg width="274" height="497" viewBox="0 0 274 497" fill="none" xmlns="http://www.w3.org/2000/svg">
<path d="M126 91.7815C124.704 86.5081 118.581 80.726 115.556 76.2523C114.741 75.0474 121.665 72.8381 123.222 74.0339C128.519 78.1015 130.927 87.5887 129 94" stroke="black" stroke-width="3" stroke-linecap="round"/>
<path d="M118 74.7956C113.447 72.2863 109.186 63.5196 107.222 58.2632C106.455 56.2091 112.85 54.9874 114.056 55.569C118.275 57.6033 123 64.5413 123 69.7747C123 72.0149 122.27 75.3903 123 77" stroke="black" stroke-width="3" stroke-linecap="round"/>
<path d="M117 75.3715C116.929 76.0324 109.605 78.3947 108.444 78.7786C105.257 79.8323 98.1923 74.7488 98 70.7429C97.6279 62.9936 105.244 64.6824 108.944 68.4287C110.68 70.1862 111.258 73.8548 113 75.1143C115.017 76.5733 117.024 78.3665 119 80" stroke="black" stroke-width="3" stroke-linecap="round"/>
<path d="M119 63.4286C119 60.4148 116.969 37 121.5 37C128.105 37 132.389 38.6615 134.445 47.0429C136.385 54.9528 134.095 74 124 74" stroke="black" stroke-width="3" stroke-linecap="round"/>
<path d="M125 76.3981C128.359 73.2272 150.177 58.7515 144.778 76.1331C143.172 81.304 132.777 79.9753 129 79.9753" stroke="black" stroke-width="3" stroke-linecap="round"/>
<path d="M129 78C137.513 78.9932 131.916 87.7234 131 92" stroke="black" stroke-width="3" stroke-linecap="round"/>
<path d="M99.9999 78C95.0563 78.5262 87.717 79.9189 93.0555 85.885C96.8494 90.1249 104.178 97.3812 110 96.9985C111.347 96.9099 113.244 89.0051 112.944 87.4992C112.382 84.6731 111.095 81.5643 110 79.1176" stroke="black" stroke-width="3" stroke-linecap="round"/>
<path d="M96.9999 82C92.4422 82 86.1585 81.8455 81.9999 79.5989C76.9597 76.8759 77.9999 65.5688 77.9999 60.5101C77.9999 47.7754 96.3646 60.9811 99.9999 66.873" stroke="black" stroke-width="3" stroke-linecap="round"/>
<path d="M103 71C101.369 66.2422 95.635 63.6673 94.2223 58.274C93.4761 55.425 94.0001 51.9039 94.0001 48.9652C94.0001 45.2727 95.7904 36.3861 100 36.0035C111.409 34.9664 113.11 47.4366 109 56.153" stroke="black" stroke-width="3" stroke-linecap="round"/>
<path d="M116 39.9386C115.811 37.5922 111.631 24.3526 115.555 23.0885C119.92 21.6823 125.264 25.6208 127.222 29.7909C128.754 33.0542 126.582 36.9024 124.444 39.3122C122.497 41.5082 120.743 39.9386 118 39.9386" stroke="black" stroke-width="3" stroke-linecap="round"/>
<path d="M102 41C97.435 36.1901 94.5786 33.9265 93.9443 27.2439C93.1475 18.848 96.0186 9.94108 99.9999 2.59989C101.233 0.325491 106.97 3.08231 108.222 4.356C111.105 7.28931 112.365 10.4241 114 14.0731C116.29 19.1823 116 23.936 116 29.4097" stroke="black" stroke-width="3" stroke-linecap="round"/>
<path d="M140 39.8289C138.517 40.0035 133.987 44.2497 133 42.4188C131.291 39.2499 130.051 35.8853 129 32.4125C127.624 27.8681 128.813 23.1487 127.5 18.698C126.743 16.1322 126 12.8547 126 10.1632C126 5.07405 131.247 7.85233 133.833 9.63346C137.224 11.9683 140.728 17.9632 142.778 21.5822C145.257 25.9598 146.157 31.187 142.556 35.0024C141.234 36.4022 139.812 37.049 139 38.7694" stroke="black" stroke-width="3" stroke-linecap="round"/>
<path d="M134 52.6431C138.072 51.84 140 42.94 143.111 44.6277C148.994 47.8185 147.925 53.1725 149.222 59.1519C150.678 65.8614 147.497 66.7479 143 70" stroke="black" stroke-width="3" stroke-linecap="round"/>
<path d="M148 56.8065C145.017 56.1007 141 47.1072 141 43.7957C141 34.3951 140.071 27 150.556 27C160.968 27 164.652 43.4592 161.778 51.7204C159.873 57.1945 151.272 54.584 150 60" stroke="black" stroke-width="3" stroke-linecap="round"/>
<path d="M84.0001 59C82.6454 53.4767 70.3044 29.5922 84.7778 34.8378C92.7202 37.7164 91.8615 43.5895 96.0001 49.2143" stroke="black" stroke-width="3" stroke-linecap="round"/>
<path d="M74 71.9696C65.2236 72.5847 53.5641 74.4594 47.4444 66.187C42.155 59.0369 46.5619 48.8852 49 41.4798C51.931 32.5776 57.2379 28.6747 66.0556 34.2371C71.4313 37.6282 77 45.1288 77 51.9935" stroke="black" stroke-width="3" stroke-linecap="round"/>
<path d="M73 73.2008C72.4306 71.8317 65.6354 69.4457 64 70.2322C60.163 72.0774 57.5422 76.7009 55.7777 80.6818C53.405 86.0352 62.5039 105.123 66 100.453C68.5354 97.066 72 94.68 72 89.7659C72 86.914 71.6081 84.9427 71.0555 82.2849C70.484 79.5364 72 76.1311 72 73.2008" stroke="black" stroke-width="3" stroke-linecap="round"/>
<path d="M73 83C76.9745 87.7307 81.9563 92.1654 87 95.167C89.891 96.8876 88.3862 91.697 91 90.1415" stroke="black" stroke-width="3" stroke-linecap="round"/>
<path d="M82.0001 93.0834C77.8272 102.125 76.0501 111.621 85.5556 116.917C89.2685 118.986 93.8054 118.309 94.0001 112.824C94.1325 109.095 95.1929 105.719 95.0001 101.75C94.8308 98.266 93.0001 95.4336 93.0001 92" stroke="black" stroke-width="3" stroke-linecap="round"/>
<path d="M111 99C111 101.541 110.887 114.857 107.778 114.999C103.09 115.213 99.1044 110.547 96 107" stroke="black" stroke-width="3" stroke-linecap="round"/>
<path d="M43.0001 64C29.8213 63.495 22.8209 56.522 25.0001 43.0764C26.7172 32.4826 40.1515 31.7771 44.5557 41.2284C46.0926 44.5267 46.0001 47.5433 46.0001 51.1239" stroke="black" stroke-width="3" stroke-linecap="round"/>
<path d="M21 47.118C17.1899 46.8506 11.1288 43.7187 7.44449 45.1293C3.78487 46.5304 2.45231 52.592 1.94449 56.0673C0.145945 68.3756 5.82569 77.5004 16.5556 83.1489C27.0765 88.6874 37 77.3988 37 67.1222" stroke="black" stroke-width="3" stroke-linecap="round"/>
<path d="M44.9998 64C38.3845 64 36.7347 71.1276 38.0553 77.587C39.1 82.6967 42.9987 83.9597 46.4442 86.343C49.0684 88.1581 50.9717 87.8978 52.9998 89" stroke="black" stroke-width="3" stroke-linecap="round"/>
<path d="M34.0001 80C24.749 80.9224 9.1941 88.1009 21.5557 99.194C28.7018 105.607 38.387 101.972 45.4446 97.5488C48.7681 95.4657 45.3501 88.9663 43.0001 87.6776" stroke="black" stroke-width="3" stroke-linecap="round"/>
<path d="M24 100C18.3169 101.132 15 106.953 15 112.595C15 117.412 27.9611 123 31.7778 123C36.6125 123 47.1687 122.492 43.4444 113.751C41.5307 109.26 37.8533 106.25 36 102.19" stroke="black" stroke-width="3" stroke-linecap="round"/>
<path d="M52.0001 113.8C47.9158 113.351 42.2131 111.326 40.5001 107.139C36.7438 97.9577 40.9109 93.3479 50.0001 94.0621C54.2928 94.3993 61.4656 96.7795 59.7778 103.045C58.756 106.839 57.683 109.913 55.0001 112.7C53.4034 114.359 51.0434 113.705 50.0001 116" stroke="black" stroke-width="3" stroke-linecap="round"/>
<path d="M76.9998 106.139C70.5331 105.773 63.9194 101.895 58.222 106.139C52.3814 110.489 55.5854 117.554 58.9998 122.278C62.3634 126.931 69.9988 134.645 75.6109 131.961C80.9021 129.431 82.2484 125.779 83.9998 120.126" stroke="black" stroke-width="3" stroke-linecap="round"/>
<path d="M164 42.8721C157.623 36.0868 161.746 31.2885 163.778 23.7209C164.956 19.333 168.638 16.5391 172 13.9088C176.05 10.74 177.88 10.781 181.778 15.682C188.382 23.9866 188.796 33.1158 179 38.6163C176.08 40.2559 166.244 42.3529 165 45.0001" stroke="black" stroke-width="3" stroke-linecap="round"/>
<path d="M166 62.8321C162.961 61.5967 162.685 44.7458 165.5 41.6942C169.596 37.2541 177.355 40.0682 182.5 40.0682C186.602 40.0682 187.555 46.0294 187.555 49.5832C187.555 54.087 184.523 56.9509 181.778 59.821C178.3 63.4562 173.72 65 169 65" stroke="black" stroke-width="3" stroke-linecap="round"/>
<path d="M168 63C163.986 68.0927 161.375 74.3096 157.611 79.616C155.995 81.8948 153.584 86.5894 151 87.773C149.091 88.6472 147.437 79.6515 147 78.2263" stroke="black" stroke-width="3" stroke-linecap="round"/>
<path d="M147 79C146.369 86.7177 145.328 94.5239 138.5 97.8972C134.386 99.9296 128 99.3528 128 92.3392" stroke="black" stroke-width="3" stroke-linecap="round"/>
<path d="M128 91C128 93.4139 129.373 104 126.444 104C123.995 104 122.273 102.814 120.444 101.045C118.072 98.7514 112.27 96.3646 111 93.3636" stroke="black" stroke-width="3" stroke-linecap="round"/>
<path d="M109 107.405C109.95 112.272 119.167 109.195 121.389 108.757C124.49 108.146 125 104.59 125 101" stroke="black" stroke-width="3" stroke-linecap="round"/>
<path d="M143 93C152.69 97.1552 167.616 97.0857 175 106.333C178.39 110.579 176.351 115.275 171.278 115.77C165.925 116.291 159.932 114.582 155.056 112.178C146.292 107.856 144.39 103.291 138 96.2876" stroke="black" stroke-width="3" stroke-linecap="round"/>
<path d="M131 97C131 100.468 128.625 120 133.667 120C140.252 120 146 118.25 146 110.143" stroke="black" stroke-width="3" stroke-linecap="round"/>
<path d="M144 115.459C139.997 120.115 133.562 127.913 135.056 135.02C135.966 139.353 150.608 147.276 154.5 142.246C158.725 136.786 155.557 125.255 153 119.688C151.035 115.41 147 112.051 147 107" stroke="black" stroke-width="3" stroke-linecap="round"/>
<path d="M170 116C170.541 124.385 170.287 140.099 159 135.933" stroke="black" stroke-width="3" stroke-linecap="round"/>
<path d="M168 102C168.407 97.1963 172.992 82.6667 165.5 82.6667C160.348 82.6667 153.629 78.2487 152 73" stroke="black" stroke-width="3" stroke-linecap="round"/>
<path d="M170 89C173.513 82.9041 173.649 73.8993 178.222 68.7778C180.39 66.3503 181.238 64.282 182 61" stroke="black" stroke-width="3" stroke-linecap="round"/>
<path d="M187 77.9999C184.24 72.5481 185.753 62.1133 186.056 56.0552C186.236 52.4474 186.792 47.6408 188.222 44.2929C191.127 37.4927 199.267 38.0327 206 39.2602C219.865 41.788 217.329 59.6008 207.556 65.945C200.137 70.7607 191.15 72.9788 184 77.9999" stroke="black" stroke-width="3" stroke-linecap="round"/>
<path d="M195 40.4215C197.24 35.8582 199.24 31.2094 201.389 26.6004C202.227 24.8019 201.633 21.6797 203.222 20.2856C207.987 16.1056 215.548 27.0694 218 29.6982C223.96 36.0892 218.166 46.4386 211 49" stroke="black" stroke-width="3" stroke-linecap="round"/>
<path d="M216 27.2798C217.097 22.0179 229.258 22.3682 233 23.2542C242.993 25.6205 242.147 34.672 238.944 43.2043C237.363 47.4162 231.343 58.3176 225.556 54.3929C223.186 52.7858 221.426 49.8841 219 48.5914" stroke="black" stroke-width="3" stroke-linecap="round"/>
<path d="M226 50C228.312 50.6379 225.419 65.4082 223.444 68.2092C219.344 74.0269 217.504 69.8646 213 69.8646" stroke="black" stroke-width="3" stroke-linecap="round"/>
<path d="M172 107C177.951 101.191 185.087 96.3826 189.222 88.8969C190.504 86.5773 197.673 77.9246 193 75.29C189.071 73.0751 185.783 74.8164 182 75.0533C178.374 75.2804 172.168 77.0635 169 79.3129" stroke="black" stroke-width="3" stroke-linecap="round"/>
<path d="M185 98.3064C187.897 103.874 195.901 116.677 203 112.518C208.609 109.232 212.706 102.524 214.778 96.4426C215.973 92.9352 218.866 89.2925 219 85.4928C219.187 80.19 218 75.116 218 70" stroke="black" stroke-width="3" stroke-linecap="round"/>
<path d="M239 42C247.241 42.8851 246.213 50.5942 243 56.2016C238.84 63.4623 231.808 67.3439 225 71" stroke="black" stroke-width="3" stroke-linecap="round"/>
<path d="M219 85.1414C224.019 79.4939 228.598 73.6724 233.778 68.2922C236.912 65.037 239.83 59.0989 243.556 56.6363C253.946 49.7685 279.056 60.1189 270.444 74.7549C266.457 81.5319 257.994 86.9034 252 91.431C244.429 97.1501 235.534 100.556 228 106.145C223.937 109.16 222.422 107.992 218.5 107.992C214.748 107.992 209.5 102.452 206 104.876" stroke="black" stroke-width="3" stroke-linecap="round"/>
<path d="M241 93C246.802 93.361 253.084 99.5325 251.944 106.161C251.296 109.934 247.157 112.466 244.333 114.152C237.265 118.372 229.038 122.152 221.444 125.198C218.864 126.233 201.703 132.858 199.222 127.901C196.504 122.472 200 118.212 200 113.094" stroke="black" stroke-width="3" stroke-linecap="round"/>
<path d="M193 116C193 136.453 172 133.629 172 116" stroke="black" stroke-width="3" stroke-linecap="round"/>
<path d="M78.0002 41.0001C77.3604 38.0424 62.714 6.63886 75.778 9.23182C82.47 10.5601 91.4532 22.9245 94.0002 29.2648" stroke="black" stroke-width="3" stroke-linecap="round"/>
<path d="M94 115C94 119.798 96.4449 127.365 93.2222 130.988C89.6964 134.952 84.6494 132.691 81 129.614" stroke="black" stroke-width="3" stroke-linecap="round"/>
<path d="M90.9999 129.296C89.8813 134.102 86.2149 138.741 84.2221 143.26C83.0619 145.891 85.7287 147.597 86.9999 149.466C92.39 157.388 100.125 153.195 106.444 149.705C119.875 142.285 110.88 125 97.9999 125" stroke="black" stroke-width="3" stroke-linecap="round"/>
<path d="M124 139.824C119.349 139.364 109.68 135.542 108.222 129.547C107.686 127.345 107.583 123.095 108.055 120.782C108.773 117.27 113.964 118.752 116 117.82C120.569 115.726 133 120.254 133 126.766C133 133.978 126.024 140.361 120 142" stroke="black" stroke-width="3" stroke-linecap="round"/>
<path d="M133 132C130.71 142.909 120.505 158.663 110 152.888" stroke="black" stroke-width="3" stroke-linecap="round"/>
<path d="M110 151C105.097 152.949 98 156.53 98 162.868C98 168.823 98.2652 176.441 104.222 178.912C121.191 185.95 119 162.39 119 152.074" stroke="black" stroke-width="3" stroke-linecap="round"/>
<path d="M119 152C119.787 160.435 132.115 159.144 130.944 168.548C129.555 179.715 117.605 179.963 110 182" stroke="black" stroke-width="3" stroke-linecap="round"/>
<path d="M89.0001 174C82.5008 174 75.6271 174.406 70.4446 169.736C66.7511 166.408 71.0034 152.897 71.7779 148.419C72.6937 143.123 75.1523 133 82.0001 133" stroke="black" stroke-width="3" stroke-linecap="round"/>
<path d="M67.0001 171.998C60.8486 171.998 51.6491 172.87 48.0001 166.162C43.5301 157.945 46.0804 149.077 51.5001 142.119C54.2505 138.588 75.029 125.839 78.0001 132.081" stroke="black" stroke-width="3" stroke-linecap="round"/>
<path d="M74 133C66.5148 133 58.296 130.825 51.4444 128.682C46.012 126.983 45 124.244 45 118.1C45 107.597 51.5596 108.084 57 114.39C60.6558 118.627 59.8007 122.711 62 127.526" stroke="black" stroke-width="3" stroke-linecap="round"/>
<path d="M44.0002 123C39.4426 125.185 26.6828 131.557 31.0002 139.292C32.3817 141.767 33.5035 143.772 36.4446 143.947C42.0955 144.284 47.0198 145.502 52.4446 142.844C54.1953 141.987 57.1475 140.639 59.0002 140.639" stroke="black" stroke-width="3" stroke-linecap="round"/>
<path d="M23 124C23 135.569 33.1774 138.043 38 146" stroke="black" stroke-width="3" stroke-linecap="round"/>
<path d="M196 126C195.37 133.562 190.779 137.251 187.611 143.394C186.498 145.554 184.036 150 181.5 150C170.659 150 166.047 137.012 162 128.182" stroke="black" stroke-width="3" stroke-linecap="round"/>
<path d="M193 138C201.595 139.548 216.632 159.838 201.556 162.801C197.915 163.517 195.395 166.123 191.778 163.702C187.955 161.144 183.986 155.265 182 150.971" stroke="black" stroke-width="3" stroke-linecap="round"/>
<path d="M182 150.585C182 153.983 182.431 165.438 180.445 168.158C175.246 175.277 165.921 176.323 161 167.152C157.841 161.264 154.305 141 165 141" stroke="black" stroke-width="3" stroke-linecap="round"/>
<path d="M140 139C143.398 142.815 146.237 147.045 150 150.496C151.54 151.909 153.873 153.623 154 156.067C154.16 159.135 154.097 162.232 152 164.6C147.8 169.344 136.164 166.384 134 171" stroke="black" stroke-width="3" stroke-linecap="round"/>
<path d="M134 170.177C139.178 175.432 144.606 182.46 151.444 176.266C155.714 172.399 157 163.659 157 158" stroke="black" stroke-width="3" stroke-linecap="round"/>
<path d="M150 392C155.447 378.252 149.899 362.142 156.611 348.59C160.011 341.726 161 337.201 161 329.41C161 325.608 159.553 321.711 159.056 318.193C157.643 308.212 147.81 301.858 141.611 294.637C132.358 283.858 122.063 274.592 115.389 261.996C110.78 253.297 108 245.485 108 235.748C108 233.44 105.963 226.514 108.778 229.242C116.572 236.796 120.605 248.472 128 256.724C141.894 272.227 162 283.366 162 306.751C162 313.499 162 311.206 162 305.686C162 298.817 161.003 291.665 159.5 284.99C157.167 274.627 153.946 264.545 147.111 255.883C140.698 247.755 132.485 241.208 125.944 233.505C120.782 227.425 119.973 218.281 117.5 210.79C116.119 206.609 115.391 202.102 113.444 198.171C113.205 197.688 111.154 195.1 111.611 194.638C113.005 193.231 115.789 196.281 116.5 197.274C121.149 203.772 125.154 210.315 130.778 216.119C136.687 222.217 142.87 227.933 148 234.739C149.162 236.28 154.452 251.586 157 250.442C160.434 248.902 161.928 241.979 162 238.777C162.276 226.505 154.871 213.483 149.222 203.219C145.876 197.138 146 187.089 146 180" stroke="black" stroke-width="3" stroke-linecap="round"/>
<path d="M147 174C150.252 180.217 150.917 186.402 153.222 192.896C155.872 200.363 160.802 207.158 163.5 214.698C168.291 228.089 167.738 240.809 167.056 254.893C166.498 266.385 166.693 277.296 167 288.715C167.047 290.477 167.781 300.022 169.5 297.715C172.564 293.605 175.117 288.308 176.778 283.46C178.996 276.987 184.418 273.1 187.5 267.136C190.867 260.621 198.307 256.347 203.556 251.483C207.825 247.526 213.88 247.228 217.5 242.37C218.248 241.367 222.869 233.753 224 234.823C227.487 238.126 226.216 244.59 224.556 248.408C222.059 254.149 218.031 258.497 213 262.328C205.504 268.036 199.116 274.51 192.444 281.224C180.008 293.738 170.034 303.718 167.056 322.201C166.425 326.113 166 329.535 166 333.494C166 338.099 169.817 342.899 170 347.861C170.239 354.342 169 360.373 169 367.092C169 372.696 170.001 372.953 175 370.223C183.614 365.517 188.892 353.569 193.944 345.625C200.177 335.826 207.5 328.956 215.222 320.468C218.735 316.607 225.856 307.41 232.5 308.896C241.009 310.799 234.1 320.825 231.222 324.717C222.826 336.074 217.221 348.146 207.556 358.65C199.87 367.003 192.17 374.762 183.222 381.851C177.508 386.377 174.041 388.187 167.278 390.013C160.622 391.809 153.292 396.822 150.778 403.653C147.103 413.639 147.628 424.234 143 434.065C133.753 453.708 131.114 476.715 119 495" stroke="black" stroke-width="3" stroke-linecap="round"/>
<path d="M118 494C117.531 488.314 116.106 484.302 118.444 478.902C122.938 468.526 127.528 457.527 128.889 446.181C129.873 437.977 132.71 429.693 133 421.486C133.257 414.207 136.539 406.542 134.222 399.261C132.206 392.924 131.954 386.569 129.444 380.347C125.146 369.688 118.716 357.149 111.056 348.636C105.744 342.734 104.364 338.125 102.778 330.115C101.066 321.469 98.2485 312.297 98 303.511C97.9343 301.188 96 299.163 96 297.001C96 296.008 102.192 306.797 102.944 308.506C107.948 319.88 111.484 331.837 119.944 341.452C134.148 357.595 147.873 378.535 142.778 401.057C142.094 404.08 142.35 407.3 141.222 410.149C140.921 410.91 139.827 416.352 141 413.685C142.388 410.531 145 407.233 145 403.582C145 396.279 145.904 386.048 150 379.841" stroke="black" stroke-width="3" stroke-linecap="round"/>
</svg>
